<svg width="23" height="14" viewBox="0 0 23 14" fill="none" xmlns="http://www.w3.org/2000/svg">
<path fill-rule="evenodd" clip-rule="evenodd" d="M3.14909 2.40828C3.0468 2.40057 2.90689 2.39998 2.65422 2.39998H0.999976C0.502919 2.39998 0.0999756 1.99704 0.0999756 1.49998C0.0999756 1.00292 0.502919 0.599979 0.999976 0.599979H2.65422C2.66304 0.599979 2.67185 0.599978 2.68065 0.599977C2.897 0.599955 3.10606 0.599934 3.28433 0.613366C3.48114 0.628194 3.70392 0.662647 3.9329 0.764786C4.2586 0.910074 4.53684 1.1441 4.73579 1.4401C4.87565 1.64818 4.94777 1.86177 4.9961 2.05313C5.03987 2.22646 5.07568 2.43244 5.11272 2.64559C5.11423 2.65426 5.11574 2.66294 5.11725 2.67163L5.36951 4.12211L18.462 4.50966C18.9747 4.52482 19.4118 4.53775 19.7707 4.57727C20.1483 4.61885 20.5145 4.69626 20.8635 4.88221C21.398 5.16693 21.8299 5.61181 22.0986 6.15444C22.2742 6.50882 22.3407 6.87715 22.3711 7.25576C22.4 7.61566 22.4 8.05303 22.4 8.56587V8.63365C22.4 9.11566 22.4 9.52815 22.3735 9.8691C22.3454 10.2288 22.2841 10.5787 22.1238 10.9193C21.8773 11.443 21.4796 11.881 20.9821 12.1769C20.6585 12.3692 20.3162 12.464 19.9608 12.5265C19.624 12.5858 19.2135 12.6255 18.7337 12.6719L9.00572 13.6133C8.51395 13.6609 8.09355 13.7016 7.74393 13.7078C7.37536 13.7142 7.01356 13.6854 6.65274 13.5528C6.10602 13.352 5.63244 12.9912 5.29369 12.5174C5.07011 12.2047 4.94625 11.8635 4.85466 11.5065C4.76779 11.1678 4.69544 10.7517 4.61081 10.2649L3.34387 2.98004C3.30058 2.73111 3.27602 2.59336 3.2509 2.49391C3.24314 2.46317 3.23713 2.44401 3.23349 2.4334C3.22714 2.42628 3.2198 2.4201 3.21169 2.41506C3.20061 2.41329 3.1807 2.41066 3.14909 2.40828ZM5.68431 5.93221L6.37839 9.92321C6.47043 10.4524 6.53115 10.7977 6.59823 11.0593C6.66256 11.3101 6.71616 11.4121 6.75792 11.4705C6.88641 11.6502 7.06605 11.787 7.27342 11.8632C7.34082 11.888 7.45336 11.9126 7.71227 11.908C7.98222 11.9033 8.33129 11.8702 8.86593 11.8184L18.5273 10.8835C19.0491 10.833 19.3893 10.7994 19.6489 10.7537C19.8975 10.71 20.0013 10.6658 20.0621 10.6297C20.2509 10.5175 20.4017 10.3513 20.4952 10.1527C20.5254 10.0887 20.5593 9.98105 20.5789 9.72935C20.5993 9.46665 20.6 9.1248 20.6 8.60048C20.6 8.0436 20.5993 7.67904 20.5769 7.39979C20.5553 7.13117 20.518 7.01855 20.4857 6.9534C20.3837 6.74757 20.2199 6.57883 20.0172 6.47083C19.953 6.43664 19.8415 6.39595 19.5737 6.36645C19.2952 6.33579 18.9308 6.32432 18.3742 6.30785L5.68431 5.93221Z" fill="#262F56"/>
</svg>
